<?xml version="1.0" encoding="UTF-8" standalone="no"?>
<svg
   id="yt-ringo2-svg_yt12"
   width="28.999998"
   height="29"
   viewBox="0 0 19.333332 29"
   focusable="false"
   aria-hidden="true"
   style="display:inherit"
   version="1.1"
   xmlns="http://www.w3.org/2000/svg"
   xmlns:svg="http://www.w3.org/2000/svg">
  <defs
     id="defs2" />
  <g
     id="g2"
     transform="translate(-4.9999999,4.5)">
    <path
       d="m 14.4848,20 c 0,0 9.0847,0 11.3381,-0.6 1.2688,-0.34 2.223,-1.32 2.5579,-2.53 C 29,14.65 29,9.98 29,9.98 29,9.98 29,5.34 28.3808,3.14 28.0459,1.9 27.0917,0.94 25.8229,0.61 23.5695,0 14.4848,0 14.4848,0 14.4848,0 5.42037,0 3.17711,0.61 1.9286,0.94 0.954148,1.9 0.59888,3.14 0,5.34 0,9.98 0,9.98 c 0,0 0,4.67 0.59888,6.89 0.355268,1.21 1.32972,2.19 2.57823,2.53 C 5.42037,20 14.4848,20 14.4848,20 Z"
       fill="#ff0033"
       id="path1" />
    <path
       d="M 19,10 11.5,5.75 v 8.5 z"
       fill="#ffffff"
       id="path2" />
  </g>
</svg>
